<svg id="Layer_1" data-name="Layer 1" xmlns="http://www.w3.org/2000/svg" viewBox="0 0 100 124.85"><defs><style>.cls-1{fill:#f04e4c;}</style></defs><title>peltarion_logotype_Pi_red</title><path class="cls-1" d="M131.92,133h0a6.74,6.74,0,0,0,.33,1.08l.08.2a7,7,0,0,0,.51,1l0,0c.22.34,5.93,8.71,5.93,8.71l-2.66,6.53-44.12-4s5.43-7.15,5.66-7.48a6.63,6.63,0,0,0,.92-2.24,7.47,7.47,0,0,0,.11-1.26V49.2l-22,1.74v77.39a6.72,6.72,0,0,0,.1,1.1h0a6.57,6.57,0,0,0,.27,1l.07.18a6.6,6.6,0,0,0,.42.89l0,0,4.44,7.79-8,5.41L38.8,141,43,134.26a5.4,5.4,0,0,0,.46-1,5.56,5.56,0,0,0,.3-1.08,7.11,7.11,0,0,0,.1-1.14V45.71a7.23,7.23,0,0,0-.1-1.15A6.64,6.64,0,0,0,43,42.51c-.19-.3-4.17-7.89-4.17-7.89l97.34-8.93,2.66,6.53s-5.73,9.5-6,9.85h0a7.53,7.53,0,0,0-.57,1.09h0a6.74,6.74,0,0,0-.35,1.16h0a6.21,6.21,0,0,0-.12,1.21v86.23A6,6,0,0,0,131.92,133Z" transform="translate(-38.8 -25.69)"/></svg>